<svg width="48" height="48" viewBox="0 0 48 48" fill="none" xmlns="http://www.w3.org/2000/svg">
<path fill-rule="evenodd" clip-rule="evenodd" d="M24 7.5C14.8873 7.5 7.5 14.8873 7.5 24C7.5 33.1127 14.8873 40.5 24 40.5C33.1127 40.5 40.5 33.1127 40.5 24C40.5 14.8873 33.1127 7.5 24 7.5ZM4.5 24C4.5 13.2304 13.2304 4.5 24 4.5C34.7696 4.5 43.5 13.2304 43.5 24C43.5 34.7696 34.7696 43.5 24 43.5C13.2304 43.5 4.5 34.7696 4.5 24ZM18.9393 18.9393C19.5251 18.3536 20.4749 18.3536 21.0607 18.9393L24 21.8787L26.9393 18.9393C27.5251 18.3536 28.4749 18.3536 29.0607 18.9393C29.6464 19.5251 29.6464 20.4749 29.0607 21.0607L26.1213 24L29.0607 26.9393C29.6464 27.5251 29.6464 28.4749 29.0607 29.0607C28.4749 29.6464 27.5251 29.6464 26.9393 29.0607L24 26.1213L21.0607 29.0607C20.4749 29.6464 19.5251 29.6464 18.9393 29.0607C18.3536 28.4749 18.3536 27.5251 18.9393 26.9393L21.8787 24L18.9393 21.0607C18.3536 20.4749 18.3536 19.5251 18.9393 18.9393Z" fill="#FF3B30"/>
</svg>
