<svg width="24" height="24" viewBox="0 0 24 24" fill="none" xmlns="http://www.w3.org/2000/svg">
<mask id="mask0_8499_115293" style="mask-type:alpha" maskUnits="userSpaceOnUse" x="0" y="0" width="24" height="24">
<rect width="24" height="24" fill="#D9D9D9"/>
</mask>
<g mask="url(#mask0_8499_115293)">
<path d="M7.30111 18.7996C6.65111 18.6496 6.03444 18.5369 5.45111 18.4616C4.86777 18.3869 4.28444 18.3496 3.70111 18.3496H3.62611C3.37611 18.3496 3.17211 18.2706 3.01411 18.1126C2.85544 17.9539 2.77611 17.7496 2.77611 17.4996C2.77611 17.2496 2.85544 17.0453 3.01411 16.8866C3.17211 16.7286 3.37611 16.6496 3.62611 16.6496H3.70111C4.28444 16.6496 4.86777 16.6123 5.45111 16.5376C6.03444 16.4623 6.65111 16.3496 7.30111 16.1996V18.7996ZM16.6761 18.7996H8.30111V16.1996H14.0761L2.27611 4.39959C2.14277 4.26626 2.07177 4.09526 2.06311 3.88659C2.05511 3.67859 2.12611 3.49959 2.27611 3.34959C2.42611 3.18293 2.60111 3.09959 2.80111 3.09959C3.00111 3.09959 3.18444 3.18293 3.35111 3.34959L20.6511 20.6746C20.8011 20.8079 20.8804 20.9789 20.8891 21.1876C20.8971 21.3956 20.8178 21.5746 20.6511 21.7246C20.5178 21.8746 20.3471 21.9496 20.1391 21.9496C19.9304 21.9496 19.7511 21.8746 19.6011 21.7246L16.6761 18.7996ZM21.1011 18.2746L19.0261 16.1996H20.1261C20.4928 16.1829 20.8011 16.3036 21.0511 16.5616C21.3011 16.8203 21.4261 17.1329 21.4261 17.4996C21.4261 17.6496 21.3928 17.7956 21.3261 17.9376C21.2594 18.0789 21.1844 18.1913 21.1011 18.2746ZM10.5011 17.9996C10.6344 17.9996 10.7511 17.9496 10.8511 17.8496C10.9511 17.7496 11.0011 17.6329 11.0011 17.4996C11.0011 17.3663 10.9511 17.2496 10.8511 17.1496C10.7511 17.0496 10.6344 16.9996 10.5011 16.9996C10.3678 16.9996 10.2511 17.0496 10.1511 17.1496C10.0511 17.2496 10.0011 17.3663 10.0011 17.4996C10.0011 17.6329 10.0511 17.7496 10.1511 17.8496C10.2511 17.9496 10.3678 17.9996 10.5011 17.9996ZM20.8261 14.9996C20.6594 14.9996 20.5178 14.9413 20.4011 14.8246C20.2844 14.7079 20.2261 14.5663 20.2261 14.3996V12.7746C20.2261 11.7579 19.9054 10.8913 19.2641 10.1746C18.6221 9.45793 17.7928 9.02459 16.7761 8.87459C16.6094 8.85793 16.4761 8.79559 16.3761 8.68759C16.2761 8.57893 16.2261 8.44959 16.2261 8.29959C16.2261 8.13293 16.2634 7.98693 16.3381 7.86159C16.4134 7.73693 16.5594 7.64126 16.7761 7.57459C17.1428 7.45793 17.4471 7.23693 17.6891 6.91159C17.9304 6.58693 18.0511 6.22459 18.0511 5.82459C18.0511 5.42459 17.9304 5.05793 17.6891 4.72459C17.4471 4.39126 17.1261 4.15793 16.7261 4.02459C16.5761 3.95793 16.4554 3.87859 16.3641 3.78659C16.2721 3.69526 16.2261 3.58293 16.2261 3.44959C16.2261 3.24959 16.2971 3.08693 16.4391 2.96159C16.5804 2.83693 16.7428 2.79959 16.9261 2.84959C17.5594 2.98293 18.1051 3.32859 18.5631 3.88659C19.0218 4.44526 19.2511 5.09126 19.2511 5.82459C19.2511 6.29126 19.1551 6.72026 18.9631 7.11159C18.7718 7.50359 18.5261 7.82459 18.2261 8.07459C19.1428 8.44126 19.9054 9.03293 20.5141 9.8496C21.1221 10.6663 21.4261 11.6329 21.4261 12.7496V14.3996C21.4261 14.5663 21.3678 14.7079 21.2511 14.8246C21.1344 14.9413 20.9928 14.9996 20.8261 14.9996ZM18.6261 14.9996C18.4594 14.9996 18.3218 14.9413 18.2131 14.8246C18.1051 14.7079 18.0511 14.5663 18.0511 14.3996V13.6996C18.0511 13.0663 17.8511 12.5703 17.4511 12.2116C17.0511 11.8536 16.5928 11.6746 16.0761 11.6746H14.5011L11.5011 8.67459V8.57459C11.5011 7.82459 11.7344 7.18693 12.2011 6.66159C12.6678 6.13693 13.2344 5.80793 13.9011 5.67459C14.0511 5.62459 14.1971 5.66193 14.3391 5.78659C14.4804 5.91193 14.5511 6.06626 14.5511 6.24959C14.5511 6.38293 14.4971 6.50793 14.3891 6.62459C14.2804 6.74126 14.1344 6.83293 13.9511 6.89959C13.5844 6.99959 13.2844 7.20359 13.0511 7.51159C12.8178 7.82026 12.7011 8.18293 12.7011 8.5996C12.7011 9.11626 12.8804 9.56226 13.2391 9.93759C13.5971 10.3123 14.0344 10.4996 14.5511 10.4996H16.0761C16.9594 10.4996 17.7051 10.7913 18.3131 11.3746C18.9218 11.9579 19.2261 12.6579 19.2261 13.4746V14.3996C19.2261 14.5663 19.1718 14.7079 19.0631 14.8246C18.9551 14.9413 18.8094 14.9996 18.6261 14.9996Z" fill="#263341"/>
</g>
</svg>
